# xmcd
#
# Track frame offsets: 
#        150
#        13895
#        26255
#        40464
#        54097
#        67219
#        79426
#        93215
#        105553
#        119804
#        134541
#        147701
#        159669
#        173339
#        186412
#        198381
#        211039
#        223270
#        235599
#        247564
#
# Disc length: 3470 seconds
#
# Revision: 0
# Processed by: cddbd v1.5.2PL0 Copyright (c) Steve Scherf et al.
# Submitted via: ExactAudioCopy v0.95b3
#
DISCID=1f0d8c14
DTITLE=T-Bone Walker - T-Bone Walker
DYEAR=2004
DGENRE=Blues
TTITLE0=Don't Give Me the Runaround
TTITLE1=I'm In A Awful Mood
TTITLE2=Goodbye Blues
TTITLE3=Call It Stormy Monday
TTITLE4=I'm Gonna Find My Baby
TTITLE5=T-Bone Jumps Again
TTITLE6=Triffin' Woman Blues
TTITLE7=I Know Your Wig Is Gone
TTITLE8=She Had To Let Me Down
TTITLE9=I Got A Break Baby
TTITLE10=Long Lost Lover Blues
TTITLE11=She's My Old Time Used To Be
TTITLE12=Hard Pain Blues
TTITLE13=It's A Lowdown Dirty Deal
TTITLE14=Bobby Sox Baby
TTITLE15=Don't Leave Me Baby
TTITLE16=No Worry Blues
TTITLE17=Midnight Blues
TTITLE18=Dream Girl Blues
TTITLE19=Long Skirt Baby Blues
EXTD=
EXTT0=
EXTT1=
EXTT2=
EXTT3=
EXTT4=
EXTT5=
EXTT6=
EXTT7=
EXTT8=
EXTT9=
EXTT10=
EXTT11=
EXTT12=
EXTT13=
EXTT14=
EXTT15=
EXTT16=
EXTT17=
EXTT18=
EXTT19=
PLAYORDER=
